HIERARCHY
ROOT hip
{
	OFFSET 0.000000 0.000000 0.000000 
	CHANNELS 6 Xposition Yposition Zposition Xrotation Zrotation Yrotation
	JOINT abdomen
	{
		OFFSET 0.000000 3.402643 0.000000 
		CHANNELS 3 Xrotation Zrotation Yrotation
		JOINT chest
		{
			OFFSET 0.000000 8.438565 -0.680529 
			CHANNELS 3 Xrotation Zrotation Yrotation
			JOINT neck
			{
				OFFSET 0.000000 10.207942 -0.272212 
				CHANNELS 3 Xrotation Zrotation Yrotation
				JOINT head
				{
					OFFSET 0.000000 3.130431 0.000000 
					CHANNELS 3 Xrotation Zrotation Yrotation
					End Site
					{
						OFFSET 0.000000 3.130435 0.000000 
					}
				}
			}
			JOINT lCollar
			{
				OFFSET 3.470700 6.669187 -0.816635 
				CHANNELS 3 Yrotation Zrotation Xrotation
				JOINT lShldr
				{
					OFFSET 3.198488 0.000000 0.000000 
					CHANNELS 3 Zrotation Yrotation Xrotation
					JOINT lForeArm
					{
						OFFSET 10.139888 0.000000 0.000000 
						CHANNELS 3 Yrotation Zrotation Xrotation
						JOINT lHand
						{
							OFFSET 8.370511 0.000000 0.000000 
							CHANNELS 3 Zrotation Yrotation Xrotation
							End Site
							{
								OFFSET 4.083176 0.000000 0.000000 
							}
						}
					}
				}
			}
			JOINT rCollar
			{
				OFFSET -3.470700 6.669187 -0.816635 
				CHANNELS 3 Yrotation Zrotation Xrotation
				JOINT rShldr
				{
					OFFSET -3.198488 0.000000 0.000000 
					CHANNELS 3 Zrotation Yrotation Xrotation
					JOINT rForeArm
					{
						OFFSET -10.139888 0.000000 0.000000 
						CHANNELS 3 Yrotation Zrotation Xrotation
						JOINT rHand
						{
							OFFSET -8.370511 0.000000 0.000000 
							CHANNELS 3 Zrotation Yrotation Xrotation
							End Site
							{
								OFFSET -4.083176 0.000000 0.000000 
							}
						}
					}
				}
			}
		}
	}
	JOINT lThigh
	{
		OFFSET 5.308129 -1.633274 1.361059 
		CHANNELS 3 Xrotation Zrotation Yrotation
		JOINT lShin
		{
			OFFSET -2.041588 -20.007561 0.000000 
			CHANNELS 3 Xrotation Zrotation Yrotation
			JOINT lFoot
			{
				OFFSET 0.000000 -19.190928 -1.224953 
				CHANNELS 3 Xrotation Yrotation Zrotation
				End Site
				{
					OFFSET 0.000000 -2.449906 4.627600 
				}
			}
		}
	}
	JOINT rThigh
	{
		OFFSET -5.308129 -1.633274 1.361059 
		CHANNELS 3 Xrotation Zrotation Yrotation
		JOINT rShin
		{
			OFFSET 2.041588 -20.007561 0.000000 
			CHANNELS 3 Xrotation Zrotation Yrotation
			JOINT rFoot
			{
				OFFSET 0.000000 -19.190928 -1.224953 
				CHANNELS 3 Xrotation Yrotation Zrotation
				End Site
				{
					OFFSET 0.000000 -2.449906 4.627600 
				}
			}
		}
	}
}
MOTION
Frames: 11
Frame Time: 0.033333
12.876423 48.071560 -45.415997 1.035395 -1.230268 130.749039 0.000000 0.000000 0.000000 24.319481 12.561449 -1.387043 -8.603516 0.000000 0.000000 -11.661784 -5.554005 -23.617640 -2.957607 -0.090307 -0.002318 -92.775566 -35.557800 2.320860 -49.561089 -38.469471 1.192207 30.942276 -36.367214 25.717802 2.957607 0.090307 -0.002334 52.688560 21.484732 -32.179703 15.109027 7.872303 7.366028 -29.318188 27.640068 14.088291 -12.086354 17.609171 12.503508 26.407211 -5.605578 -3.235615 -7.764291 0.936872 -14.816173 -21.002264 -24.855505 -15.688325 24.637806 9.208834 1.713859 1.344605 3.060346 0.756079 
12.770938 48.010719 -45.442959 1.035362 -1.142392 130.945953 0.000000 0.000000 0.000000 24.401834 12.580473 -1.407071 -8.603516 0.000000 0.000000 -11.741883 -5.596992 -23.749434 -2.957607 -0.090307 -0.002318 -93.280312 -35.368313 2.781196 -49.176682 -38.339211 1.449654 30.461336 -36.435623 26.303505 2.957607 0.090307 -0.002334 53.016048 21.397552 -31.910654 15.180651 7.948721 7.424530 -29.347910 27.735727 14.073540 -12.031179 17.372698 12.606973 26.362568 -5.503376 -3.345259 -8.171323 0.934176 -14.716621 -21.052946 -25.044806 -15.804932 24.965307 9.197461 1.781745 1.244889 3.024716 0.849803 
12.660694 47.963585 -45.470833 1.054866 -1.054509 131.123001 0.000000 0.000000 0.000000 24.499598 12.553080 -1.403481 -8.603516 0.000000 0.000000 -11.810857 -5.603670 -23.885862 -2.957607 -0.090307 -0.002318 -93.565727 -35.011078 3.111308 -48.816833 -38.211906 1.806926 30.153421 -36.450703 26.637739 2.957607 0.090307 -0.002334 53.382435 21.322382 -31.687775 15.240847 7.988918 7.473939 -28.983618 27.961245 14.351262 -11.951475 17.144230 12.788516 26.274178 -5.425015 -3.427493 -8.408848 0.801582 -14.540764 -21.053694 -25.222467 -15.930546 25.233505 9.204023 1.854203 1.172693 3.026406 0.925148 
12.556341 47.927101 -45.504944 1.074384 -1.005682 131.270035 0.000000 0.000000 0.000000 24.572035 12.474320 -1.398700 -8.603516 0.000000 0.000000 -11.879166 -5.592035 -24.009542 -2.957607 -0.090307 -0.002318 -93.702538 -34.577751 3.313816 -48.142178 -38.070503 2.220995 29.918322 -36.489304 26.769539 2.957607 0.090307 -0.002334 53.825699 21.250330 -31.450996 15.292348 8.040856 7.492857 -28.704939 28.150389 14.602897 -11.892787 16.939125 12.948083 26.184549 -5.366371 -3.436351 -8.591590 0.641894 -14.407714 -21.052458 -25.424622 -15.973917 25.400229 9.267622 1.868355 1.149158 3.029751 1.000204 
12.328715 47.867390 -45.578926 1.123194 -0.927556 131.592987 0.000000 0.000000 0.000000 24.797400 12.318209 -1.341893 -8.603516 0.000000 0.000000 -12.074942 -5.575761 -24.355284 -2.957607 -0.090307 -0.002318 -94.012321 -33.938046 3.926878 -47.463764 -37.808449 2.676343 29.351122 -36.269981 27.028492 2.957607 0.090307 -0.002334 54.617737 21.123871 -31.136589 15.474559 8.149564 7.526706 -28.430464 28.476442 15.016154 -11.862195 16.457829 13.123993 26.028254 -5.219705 -3.517853 -9.067330 0.494291 -14.249940 -21.248497 -25.924332 -15.938530 25.876823 9.311093 1.907844 1.135064 2.941550 1.248845 
12.118199 47.867390 -45.644302 1.113415 -0.888504 131.877121 0.000000 0.000000 0.000000 25.013638 12.172192 -1.303779 -8.603516 0.000000 0.000000 -12.338669 -5.538678 -24.613543 -2.957607 -0.090307 -0.002318 -93.713516 -33.159512 4.104490 -46.757454 -37.531078 3.219688 29.028860 -36.089779 27.061922 2.957607 0.090307 -0.002334 55.511745 21.059563 -30.706816 15.705868 8.246662 7.546337 -28.086191 28.896307 15.573030 -11.900770 16.017691 13.204808 25.832897 -5.117669 -3.625217 -9.364285 0.451919 -13.928070 -21.316027 -26.312977 -16.083410 25.965349 9.325928 1.931599 1.316274 2.939069 1.471585 
11.901904 47.881550 -45.721233 1.025517 -0.898294 132.141983 0.000000 0.000000 0.000000 25.183666 12.066553 -1.270369 -8.603516 0.000000 0.000000 -12.650027 -5.463350 -24.803385 -2.957607 -0.090307 -0.002318 -93.013786 -32.331001 3.899372 -46.085621 -37.298916 3.670348 28.844196 -35.888683 26.916578 2.957607 0.090307 -0.002334 56.440475 21.064934 -30.211924 15.958004 8.353044 7.540660 -27.556713 29.448582 16.398296 -12.128169 15.613601 13.163906 25.688808 -5.083255 -3.634628 -9.307094 0.450794 -13.528184 -21.405573 -26.639021 -16.272371 25.856174 9.281459 1.879810 1.613885 3.015642 1.739400 
11.674279 47.915771 -45.803722 0.908322 -0.927618 132.367950 0.000000 0.000000 0.000000 25.344603 11.970833 -1.252965 -8.603516 0.000000 0.000000 -12.989407 -5.350722 -24.946955 -2.957607 -0.090307 -0.002318 -91.752014 -31.561672 3.170484 -45.477818 -37.154694 4.007320 28.825703 -35.654648 26.523338 2.957607 0.090307 -0.002334 57.327847 21.137508 -29.724470 16.260475 8.482210 7.559090 -26.893942 30.060326 17.407776 -12.407955 15.275037 13.076943 25.550228 -5.078568 -3.621946 -9.279308 0.379357 -13.109015 -21.529654 -26.944710 -16.404793 25.604706 9.325994 1.740996 2.057844 3.128275 1.931869 
11.458097 47.952705 -45.883369 0.761827 -0.966711 132.526047 0.000000 0.000000 0.000000 25.497337 11.893812 -1.202565 -8.603516 0.000000 0.000000 -13.318277 -5.220615 -25.061773 -2.957607 -0.090307 -0.002318 -90.191856 -30.816359 2.119423 -45.118324 -37.042664 4.269778 29.087460 -35.339264 25.840525 2.957607 0.090307 -0.002334 58.061409 21.244310 -29.378628 16.621864 8.590529 7.544197 -26.230457 30.573809 18.431774 -12.692094 15.033010 13.018294 25.410492 -5.078312 -3.619911 -9.153383 0.383191 -12.822503 -21.698116 -27.213671 -16.546255 25.339855 9.345146 1.615117 2.516098 3.280981 2.115616 
11.224692 47.958370 -45.974464 0.595790 -0.976510 132.616638 0.000000 0.000000 0.000000 25.655352 11.869680 -1.123683 -8.603516 0.000000 0.000000 -13.646798 -5.081840 -25.151501 -2.957607 -0.090307 -0.002318 -88.372368 -30.263777 0.698669 -44.850033 -36.992443 4.396099 29.458132 -35.015079 25.165100 2.957607 0.090307 -0.002334 58.667747 21.384823 -29.028923 16.992390 8.686944 7.548604 -25.955368 30.987801 19.201355 -12.986344 14.888960 12.867765 25.339853 -5.091910 -3.567411 -9.048108 0.424838 -12.551609 -21.884275 -27.410852 -16.642763 25.062229 9.338805 1.492608 2.969359 3.479390 2.303138 
11.002846 47.964149 -46.054123 0.449279 -0.937471 132.648727 0.000000 0.000000 0.000000 25.876493 11.874833 -1.027958 -8.603516 0.000000 0.000000 -13.965846 -4.952860 -25.191055 -2.957607 -0.090307 -0.002318 -86.397018 -29.919302 -0.900156 -44.937302 -36.993614 4.374533 29.849695 -34.698956 24.557631 2.957607 0.090307 -0.002334 59.050251 21.594889 -28.789955 17.342642 8.766217 7.541611 -25.749714 31.396282 19.881033 -13.278083 14.740672 12.717623 25.400543 -5.078238 -3.619061 -9.050570 0.598939 -12.287591 -22.057461 -27.531157 -16.728899 24.793283 9.306278 1.374196 3.424025 3.669524 2.475966 
